# xmcd
#
# Track frame offsets: 
#        150
#        26520
#        55294
#        88163
#        125820
#        161918
#        180367
#        209345
#        238426
#        269577
#
# Disc length: 4093 seconds
#
# Revision: 1
# Processed by: cddbd v1.5.2PL0 Copyright (c) Steve Scherf et al.
# Submitted via: ExactAudioCopy v0.95b4
#
DISCID=970ffb0a
DTITLE=Amanaska - Panorama
DYEAR=2003
DGENRE=New Age
TTITLE0=Incantation
TTITLE1=Distant Worlds
TTITLE2=Meridien
TTITLE3=Panorama
TTITLE4=Easeback
TTITLE5=Baato Boy
TTITLE6=Nomad
TTITLE7=Dhyana
TTITLE8=Kagbeni Girls
TTITLE9=Pilgrim
EXTD=
EXTT0=
EXTT1=
EXTT2=
EXTT3=
EXTT4=
EXTT5=
EXTT6=
EXTT7=
EXTT8=
EXTT9=
PLAYORDER=
